<svg width="27" height="26" viewBox="0 0 27 26" fill="none" xmlns="http://www.w3.org/2000/svg">
<path d="M21.7436 24.6825C20.777 24.6825 19.993 23.8971 19.993 22.9331C19.993 21.9678 20.777 21.1825 21.7436 21.1825C22.709 21.1825 23.493 21.9678 23.493 22.9331C23.493 23.8971 22.709 24.6825 21.7436 24.6825ZM21.7436 20.0158C20.1356 20.0158 18.8263 21.3238 18.8263 22.9331C18.8263 24.5398 20.1356 25.8491 21.7436 25.8491C23.3503 25.8491 24.661 24.5411 24.661 22.9331C24.661 21.3238 23.3503 20.0158 21.7436 20.0158Z" fill="black"/>
<path d="M10.0743 24.6825C9.10898 24.6825 8.32498 23.8971 8.32498 22.9331C8.32498 21.9678 9.10898 21.1825 10.0743 21.1825C11.0396 21.1825 11.8236 21.9678 11.8236 22.9331C11.8236 23.8971 11.0396 24.6825 10.0743 24.6825ZM10.0743 20.0158C8.46632 20.0158 7.15698 21.3238 7.15698 22.9331C7.15698 24.5398 8.46632 25.8491 10.0743 25.8491C11.6823 25.8491 12.9916 24.5411 12.9916 22.9331C12.9916 21.3238 11.6823 20.0158 10.0743 20.0158Z" fill="black"/>
<path d="M24.077 17.682H10.6103C9.22498 17.682 8.02232 16.6953 7.75032 15.3366L4.81298 0.648634C4.75832 0.375301 4.51832 0.1793 4.24098 0.1793H0.739649C0.418316 0.1793 0.156982 0.440634 0.156982 0.7633C0.156982 1.08463 0.418316 1.34597 0.739649 1.34597H3.76232L6.60498 15.566C6.98632 17.4686 8.67032 18.8486 10.6103 18.8486H24.077C24.3983 18.8486 24.6596 18.5873 24.6596 18.2646C24.6596 17.9433 24.3983 17.682 24.077 17.682Z" fill="black"/>
<path d="M26.8479 3.87715C26.7372 3.75182 26.5785 3.67982 26.4105 3.67982H5.40785C5.08652 3.67982 4.82385 3.94115 4.82385 4.26382C4.82385 4.58515 5.08652 4.84649 5.40785 4.84649H25.7505L24.9212 11.4812C24.8105 12.3545 24.0639 13.0145 23.1825 13.0145H7.15719C6.83585 13.0145 6.57452 13.2758 6.57452 13.5985C6.57452 13.9198 6.83585 14.1812 7.15719 14.1812H23.1825C24.6518 14.1812 25.8959 13.0838 26.0785 11.6265L26.9879 4.33582C27.0105 4.17049 26.9585 4.00249 26.8479 3.87715Z" fill="black"/>
</svg>
