<svg width="18" height="26" viewBox="0 0 18 26" fill="none" xmlns="http://www.w3.org/2000/svg">
<path d="M8.62911 21.0977C8.65444 21.1231 8.67844 21.1457 8.70644 21.1671C8.71711 21.1777 8.73044 21.1857 8.74244 21.1951C8.75844 21.2057 8.77177 21.2177 8.78777 21.2284C8.80244 21.2377 8.81844 21.2457 8.83311 21.2551C8.84777 21.2644 8.86111 21.2737 8.87577 21.2804C8.89044 21.2897 8.90777 21.2951 8.92377 21.3031C8.93711 21.3111 8.95311 21.3177 8.96911 21.3244C8.98377 21.3311 8.99977 21.3364 9.01577 21.3417C9.03177 21.3471 9.04777 21.3537 9.06511 21.3591L9.11177 21.3711C9.13044 21.3751 9.14777 21.3804 9.16377 21.3844C9.18244 21.3884 9.20111 21.3897 9.21977 21.3924C9.23444 21.3951 9.25044 21.3977 9.26644 21.3991C9.33444 21.4057 9.40377 21.4057 9.47311 21.3991C9.48777 21.3977 9.50244 21.3951 9.51844 21.3924C9.53711 21.3897 9.55444 21.3884 9.57311 21.3844C9.59177 21.3804 9.60777 21.3751 9.62511 21.3711C9.64111 21.3671 9.65711 21.3631 9.67311 21.3591C9.69044 21.3537 9.70644 21.3471 9.72244 21.3417C9.73844 21.3364 9.75444 21.3311 9.76911 21.3244C9.78511 21.3177 9.79977 21.3111 9.81577 21.3031C9.83044 21.2951 9.84644 21.2897 9.86244 21.2804C9.87711 21.2737 9.89044 21.2644 9.90511 21.2551C9.91977 21.2457 9.93444 21.2377 9.95044 21.2284C9.96511 21.2177 9.98111 21.2057 9.99444 21.1951C10.0078 21.1857 10.0211 21.1777 10.0331 21.1671C10.0584 21.1457 10.0851 21.1231 10.1078 21.0977H10.1091L17.4371 13.7697C17.8464 13.3604 17.8464 12.6977 17.4371 12.2897C17.0291 11.8804 16.3664 11.8804 15.9571 12.2897L10.4158 17.8297V1.51372C10.4158 0.935055 9.94644 0.465721 9.36911 0.465721C8.79044 0.465721 8.32244 0.935055 8.32244 1.51372V17.8297L2.78111 12.2897C2.37311 11.8804 1.70911 11.8804 1.29977 12.2897C0.891774 12.6977 0.891774 13.3604 1.29977 13.7697L8.62911 21.0977Z" fill="#F45D05"/>
<path d="M16.6967 23.4987H2.04069C1.46202 23.4987 0.994019 23.9667 0.994019 24.5454C0.994019 25.124 1.46202 25.592 2.04069 25.592H16.6967C17.2754 25.592 17.7434 25.124 17.7434 24.5454C17.7434 23.968 17.2754 23.4987 16.6967 23.4987Z" fill="#F45D05"/>
</svg>
