<svg width="71" height="62" viewBox="0 0 71 62" fill="none" xmlns="http://www.w3.org/2000/svg">
<path fill-rule="evenodd" clip-rule="evenodd" d="M31.9699 31.0781V43.3475C31.9699 43.5235 32.1126 43.6661 32.2899 43.6661H36.8459C37.0219 43.6661 37.1646 43.5235 37.1646 43.3475V30.8795H40.4686C40.6339 30.8795 40.7739 30.7515 40.7859 30.5861L41.1046 26.8288C41.1192 26.6435 40.9739 26.4835 40.7859 26.4835H37.1646V23.8181C37.1646 23.1928 37.6712 22.6861 38.2966 22.6861H40.8419C41.0179 22.6861 41.1619 22.5435 41.1619 22.3675V18.6101C41.1619 18.4341 41.0179 18.2901 40.8419 18.2901H36.5406C34.0166 18.2901 31.9699 20.3368 31.9699 22.8608V26.4835H29.6926C29.5152 26.4835 29.3726 26.6261 29.3726 26.8021V30.5595C29.3726 30.7355 29.5152 30.8795 29.6926 30.8795H31.9699V31.0781Z" fill="#FF570F"/>
<path d="M52.4647 1.19266H18.07L0.874023 30.9793L18.07 60.766H52.4647L69.6607 30.9793L52.4647 1.19266Z" stroke="#E1E1E1" stroke-miterlimit="10"/>
</svg>
