<svg width="587" height="591" viewBox="0 0 587 591" fill="none" xmlns="http://www.w3.org/2000/svg">
<path d="M229.964 557.25L210.921 589.934H71.373L41.5303 538.207L1.74097 469.145L52.6143 381.038L71.6583 348.354H211.205L241.048 400.081L280.837 469.145L229.964 557.25Z" stroke="#D75404" stroke-width="1.33333" stroke-miterlimit="10"/>
<path d="M421.494 411.201L407.91 434.514H308.37L287.082 397.617L258.7 348.354L294.99 285.506L308.572 262.193H408.114L429.4 299.09L457.783 348.354L421.494 411.201Z" stroke="#D75404" stroke-width="1.33333" stroke-miterlimit="10"/>
<path d="M247.269 266.991L233.455 290.703H132.217L110.568 253.178L81.7014 203.074L118.609 139.156L132.424 115.444H233.661L255.311 152.971L284.177 203.074L247.269 266.991Z" stroke="#D75404" stroke-width="1.33333" stroke-miterlimit="10"/>
<path d="M437.174 189.033L425.606 208.887H340.838L322.71 177.465L298.54 135.513L329.444 81.9928L341.01 62.1381H425.78L443.908 93.5608L468.078 135.513L437.174 189.033Z" stroke="#D75404" stroke-width="1.33333" stroke-miterlimit="10"/>
<path d="M565.435 85.8263L557.7 99.1023H501.018L488.898 78.0916L472.735 50.0396L493.399 14.253L501.134 0.976956H557.815L569.936 21.9876L586.099 50.0396L565.435 85.8263Z" stroke="#D75404" stroke-width="1.33333" stroke-miterlimit="10"/>
</svg>
