<svg width="71" height="61" viewBox="0 0 71 61" fill="none" xmlns="http://www.w3.org/2000/svg">
<path d="M35.2147 26.1013C32.8827 26.1013 30.9921 27.992 30.9921 30.3253C30.9921 32.6573 32.8827 34.548 35.2147 34.548C37.5481 34.548 39.4387 32.6573 39.4387 30.3253C39.4387 27.992 37.5481 26.1013 35.2147 26.1013Z" fill="#FF570F"/>
<path d="M52.3814 0.570097H17.9868L0.790771 30.3568L17.9868 60.1434H52.3814L69.5774 30.3568L52.3814 0.570097Z" stroke="#E1E1E1" stroke-miterlimit="10"/>
<path d="M41.6457 25.4075C40.7631 25.4075 40.0684 24.6515 40.0684 23.8315C40.0684 23.0115 40.8257 22.1929 41.6457 22.1929C42.5271 22.1929 43.2217 22.9489 43.2217 23.7689C43.2217 24.7142 42.5271 25.4075 41.6457 25.4075ZM35.2151 36.9435C31.6217 36.9435 28.6591 34.0449 28.6591 30.3875C28.6591 26.7315 31.6217 23.8315 35.2151 23.8315C38.8084 23.8315 41.7711 26.7315 41.7711 30.3875C41.7711 33.9809 38.8711 36.9435 35.2151 36.9435ZM39.6271 17.7795H30.8017C26.3271 17.7795 22.6084 21.4982 22.6084 25.9755V34.7369C22.6084 39.2755 26.3271 42.9329 30.8017 42.9329H39.5644C44.1044 42.9329 47.7604 39.2129 47.7604 34.7369V25.9755C47.8231 21.4982 44.1044 17.7795 39.6271 17.7795" fill="#FF570F"/>
</svg>
