<svg width="71" height="61" viewBox="0 0 71 61" fill="none" xmlns="http://www.w3.org/2000/svg">
<path d="M26.4764 41.3959H30.6924C30.8938 41.3959 31.0591 41.2319 31.0591 41.0305V26.8745C31.0591 26.6732 30.8938 26.5092 30.6924 26.5092H26.4764C26.2751 26.5092 26.1111 26.6732 26.1111 26.8745V41.0305C26.1111 41.2319 26.2751 41.3959 26.4764 41.3959ZM48.9044 32.8599V41.0305C48.9044 41.2319 48.7404 41.3959 48.5391 41.3959H44.3204C44.1178 41.3959 43.9537 41.2319 43.9537 41.0305V33.4305C43.9537 31.4305 43.2404 30.0652 41.4484 30.0652C40.0804 30.0652 39.2684 30.9839 38.9084 31.8745C38.7791 32.1932 38.7444 32.6359 38.7444 33.0812V41.0305C38.7444 41.2319 38.5818 41.3959 38.3804 41.3959H34.1631C33.9591 41.3959 33.7964 41.2332 33.7964 41.0305C33.8058 39.0065 33.8484 29.1879 33.8058 26.8785C33.8018 26.6745 33.9671 26.5092 34.1711 26.5092H38.3804C38.5818 26.5092 38.7457 26.6732 38.7457 26.8745V28.6185C38.7351 28.6359 38.7218 28.6505 38.7138 28.6679H38.7457V28.6185C39.4031 27.6065 40.5764 26.1599 43.2071 26.1599C46.4631 26.1599 48.9044 28.2879 48.9044 32.8599" fill="#FF570F"/>
<path d="M31.0859 21.9661C31.0859 23.4301 29.8992 24.6155 28.4366 24.6155C26.9739 24.6155 25.7872 23.4301 25.7872 21.9661C25.7872 20.5021 26.9739 19.3168 28.4366 19.3168C29.8992 19.3168 31.0859 20.5021 31.0859 21.9661Z" fill="#FF570F"/>
<path d="M53.1328 0.570097H18.7394L1.54211 30.3568L18.7394 60.1434H53.1328L70.3301 30.3568L53.1328 0.570097Z" stroke="#E1E1E1" stroke-miterlimit="10"/>
</svg>
