<svg width="25" height="27" viewBox="0 0 25 27" fill="none" xmlns="http://www.w3.org/2000/svg">
<path d="M12.327 10.1361C10.0163 10.1361 8.13364 8.25348 8.13364 5.94281C8.13364 3.63214 10.0163 1.74948 12.327 1.74948C14.6376 1.74948 16.5203 3.63214 16.5203 5.94281C16.5203 8.25348 14.6376 10.1361 12.327 10.1361ZM12.327 0.0734768C9.08964 0.0734768 6.45764 2.70548 6.45764 5.94281C6.45764 9.18014 9.08964 11.8135 12.327 11.8135C15.5643 11.8135 18.1963 9.18014 18.1963 5.94281C18.1963 2.70681 15.5643 0.0734768 12.327 0.0734768Z" fill="black"/>
<path d="M12.3269 13.3996C5.70957 13.3996 0.326904 18.7836 0.326904 25.3996C0.326904 25.9089 0.741571 26.3223 1.24957 26.3223C1.7589 26.3223 2.17357 25.9089 2.17357 25.3996C2.17357 19.7996 6.72824 15.2463 12.3269 15.2463C17.9256 15.2463 22.4802 19.7996 22.4802 25.3996C22.4802 25.9089 22.8949 26.3223 23.4042 26.3223C23.9122 26.3223 24.3269 25.9089 24.3269 25.3996C24.3269 18.7836 18.9442 13.3996 12.3269 13.3996Z" fill="black"/>
</svg>
