<svg width="70" height="62" viewBox="0 0 70 62" fill="none" xmlns="http://www.w3.org/2000/svg">
<path d="M39.0207 31.3214L32.6994 34.7894C32.4247 34.9374 32.1767 34.7388 32.1767 34.4254V27.3094C32.1767 26.9934 32.4327 26.7934 32.7074 26.9521L39.0714 30.6001C39.3527 30.7601 39.3047 31.1681 39.0207 31.3214ZM49.0207 27.2334C49.0207 23.8574 46.2834 21.1228 42.9087 21.1228H27.0594C23.6847 21.1228 20.9487 23.8574 20.9487 27.2334V34.6614C20.9487 38.0361 23.6847 40.7721 27.0594 40.7721H42.9087C46.2834 40.7721 49.0207 38.0361 49.0207 34.6614V27.2334Z" fill="#F05D05"/>
<path d="M52.1809 1.16128H17.7875L0.59021 30.9479L17.7875 60.7333H52.1809L69.3782 30.9479L52.1809 1.16128Z" stroke="#E1E1E1" stroke-miterlimit="10"/>
</svg>
